<svg width="46" height="45" viewBox="0 0 46 45" fill="none" xmlns="http://www.w3.org/2000/svg">
<g clip-path="url(#clip0_5_6081)">
<path d="M0 21.9892V35.9813C0 36.7618 0.506804 37.466 1.27811 37.7577L20.0642 44.8593C21.4069 45.3663 22.8688 44.4409 22.8688 43.0829V29.0908C22.8688 28.3103 22.362 27.6061 21.5906 27.3144L2.80458 20.2127C1.46388 19.7038 0 20.6312 0 21.9892Z" fill="#4F7648"/>
<path d="M2.03933 21.6817C2.10394 21.6817 2.16855 21.6938 2.23115 21.7179L21.0172 28.8196C21.1585 28.8739 21.2534 28.9825 21.2534 29.0912V43.0833C21.2534 43.2603 21.0293 43.3911 20.8294 43.3911C20.7648 43.3911 20.7002 43.379 20.6376 43.3549L1.85155 36.2532C1.71021 36.1989 1.61531 36.0902 1.61531 35.9816V21.9895C1.61531 21.8125 1.83943 21.6817 2.03933 21.6817ZM2.03933 20.0723C0.96111 20.0723 0 20.8891 0 21.9895V35.9816C0 36.7622 0.506804 37.4663 1.27811 37.758L20.0642 44.8597C20.3186 44.9563 20.577 45.0005 20.8294 45.0005C21.9076 45.0005 22.8688 44.1837 22.8688 43.0833V29.0912C22.8688 28.3106 22.362 27.6065 21.5906 27.3148L2.80458 20.2131C2.55017 20.1165 2.29172 20.0723 2.03933 20.0723Z" fill="#4F7648"/>
<path d="M25.8369 44.2695C25.3947 44.2695 24.9767 44.006 24.8051 43.5714C24.5789 43.0041 24.8576 42.3603 25.427 42.135L43.7729 34.8744L43.6861 22.0874L26.1438 29.0301C25.5744 29.2555 24.9283 28.9778 24.7021 28.4105C24.476 27.8432 24.7546 27.1994 25.324 26.9741L44.3766 19.4338C44.7178 19.299 45.1035 19.3413 45.4064 19.5445C45.7112 19.7497 45.893 20.0897 45.897 20.4538L46 35.6148C46.002 36.0714 45.7254 36.4819 45.2993 36.6508L26.2468 44.1911C26.1115 44.2434 25.9742 44.2695 25.8369 44.2695Z" fill="#4F7648"/>
<path d="M21.8532 6.92877C21.3 5.78204 20.1349 5.05176 18.8568 5.05176H14.3642C13.4576 5.05176 12.8721 6.00736 13.288 6.81209L15.1416 10.3971C15.7716 11.6143 17.0315 12.3808 18.4065 12.3808H19.0729C20.1874 12.3808 21.092 13.282 21.092 14.3926V20.6352C21.092 21.5405 21.7765 22.3352 22.6831 22.3895C23.6684 22.4478 24.4841 21.6713 24.4841 20.7016V13.0688C24.4841 12.6161 24.3812 12.1695 24.1853 11.7611L21.8552 6.93078L21.8532 6.92877Z" fill="#4F7648"/>
<path d="M18.8568 7.06356C19.3555 7.06356 19.8179 7.35326 20.034 7.80189L21.7724 11.405C21.0556 10.7613 20.1087 10.369 19.0708 10.369H18.4045C17.7826 10.369 17.2193 10.0269 16.9346 9.47571L15.6888 7.06356H18.8568ZM18.8568 5.05176H14.3642C13.4576 5.05176 12.8721 6.00736 13.288 6.81209L15.1416 10.3971C15.7716 11.6143 17.0315 12.3808 18.4065 12.3808H19.0729C20.1874 12.3808 21.092 13.282 21.092 14.3926V20.6352C21.092 21.5405 21.7765 22.3352 22.6831 22.3895C22.7174 22.3915 22.7537 22.3935 22.7881 22.3935C23.7249 22.3935 24.4841 21.6371 24.4841 20.7036V13.0708C24.4841 12.6181 24.3812 12.1715 24.1853 11.7631L21.8552 6.93279C21.302 5.78607 20.1369 5.05578 18.8588 5.05578L18.8568 5.05176Z" fill="#4F7648"/>
<path d="M29.451 12.0789H26.5273C25.9701 12.0789 25.5178 11.6282 25.5178 11.073C25.5178 10.5177 25.9701 10.0671 26.5273 10.0671H29.451C30.5999 10.0671 31.658 9.26033 32.2112 7.9607L34.7472 2.00979H28.924C27.9064 2.00979 26.9453 2.77025 26.4769 3.94716L25.4208 6.60072C25.2149 7.11776 24.6273 7.36923 24.1104 7.16604C23.5915 6.96084 23.3391 6.37741 23.543 5.86038L24.5991 3.20681C25.3744 1.25738 27.0725 0 28.924 0H36.2717C36.6109 0 36.9259 0.168991 37.1137 0.450644C37.3015 0.732296 37.3338 1.08839 37.2005 1.3982L34.0668 8.74732C33.1905 10.8014 31.4217 12.0789 29.447 12.0789H29.451Z" fill="#4F7648"/>
</g>
<defs>
<clipPath id="clip0_5_6081">
<rect width="46" height="45" fill="white"/>
</clipPath>
</defs>
</svg>
